<svg width="50" height="50" viewBox="0 0 50 50" fill="none" xmlns="http://www.w3.org/2000/svg">
<path fill-rule="evenodd" clip-rule="evenodd" d="M11.7753 29.1595C9.37611 26.2346 7.61719 22.5036 7.61719 17.8489C7.61719 8.26732 15.3962 0.488281 24.9778 0.488281C34.5594 0.488281 42.3384 8.26732 42.3384 17.8489C42.3384 22.5036 40.5795 26.2346 38.1803 29.1595C33.7061 34.7104 28.1874 39.358 25.8113 48.874C25.7169 49.2523 25.3679 49.5117 24.9779 49.5117C24.588 49.5117 24.2391 49.2522 24.1447 48.8739C21.7682 39.358 16.2495 34.7104 11.7753 29.1595Z" fill="#0087FF"/>
<path d="M20.6576 12.5973C20.6576 13.3876 21.2909 14.0278 22.0646 14.0278C22.8422 14.0278 23.4717 13.3877 23.4717 12.5973C23.4717 11.8107 22.8422 11.1669 22.0646 11.1669C21.2909 11.1669 20.6576 11.8107 20.6576 12.5973Z" fill="white"/>
<path d="M21.3533 27.2952L20.8366 27.2924L20.8376 27.2952H20.8301L21.4773 28.9153H23.419L22.705 27.2952H21.3533Z" fill="white"/>
<path d="M16.2229 7.8125H16.1692H16.1621V28.8437V28.908V28.9153H18.6092L20.3996 28.9206L20.3941 28.9153H20.4044L18.5683 27.1666V18.5337H20.837L22.0611 17.4113L22.4174 17.0873L23.4612 19.3741L21.5083 24.2478L20.7703 26.0828H20.7732L20.7703 26.09H22.6452L24.1424 22.7041L25.3278 20.0375L26.3281 24.32H31.3303C31.6187 24.32 31.7911 23.9981 31.6328 23.7549L31.0137 22.8036C30.9996 22.7858 30.9855 22.7715 30.9715 22.7535C30.9047 22.6821 30.8131 22.6391 30.7147 22.6391H27.8021L27.0668 18.7161L26.072 16.5315L25.663 15.6264H27.2004L28.2101 17.5647C28.2734 17.6862 28.3964 17.7506 28.5161 17.7506C28.5795 17.7506 28.6427 17.7326 28.699 17.697L29.399 17.2571C29.5537 17.1569 29.6066 16.9497 29.5151 16.7886L28.0271 14.1065H24.2704C23.4189 14.1065 22.6099 14.4676 22.0366 15.1043L20.436 16.8744H18.5683V9.79369H31.3475H31.3796V22.2171C31.5519 22.2743 31.7032 22.3889 31.8052 22.5462L32.4243 23.4939C32.5897 23.7512 32.6072 24.0767 32.4631 24.3484C32.3188 24.6203 32.0444 24.7885 31.7419 24.7885H31.3796V27.1666L33.2193 28.9153H33.7891V7.8125H16.2229Z" fill="white"/>
</svg>
